<?xml version="1.0" encoding="utf-8"?>
<!-- Generator: Adobe Illustrator 26.0.2, SVG Export Plug-In . SVG Version: 6.00 Build 0)  -->
<svg version="1.1" id="Layer_1" xmlns="http://www.w3.org/2000/svg" xmlns:xlink="http://www.w3.org/1999/xlink" x="0px" y="0px"
	 viewBox="0 0 48 48" style="enable-background:new 0 0 48 48;" xml:space="preserve">
<style type="text/css">
	.st0{fill:#3CBA8F;}
	.st1{fill:#FB8C00;}
	.st2{fill:#424242;}
	.st3{fill:#FFA726;}
	.st4{fill:#FFB74D;}
</style>
<rect x="-0.3" y="-0.5" class="st0" width="48.3" height="48.4"/>
<rect x="16" y="34" class="st1" width="16" height="14"/>
<polygon class="st2" points="15,38 14,48 24,48 24,48 19,41 "/>
<polygon class="st2" points="33,38 34,48 24,48 24,48 30,38 "/>
<path class="st3" d="M35.8,25.7c0.2-0.8,0.5-1.5,1-2.1c0.4-0.5,1.1-0.8,1.6-0.5c0.5,0.3,0.6,1,0.6,1.6c0,1,0,2.1,0,3.1
	c0,0.6,0,1.2-0.2,1.7c-0.2,0.6-0.5,1.1-0.9,1.6c-0.3,0.4-0.6,0.8-0.9,1.2c-0.3,0.3-0.6,0.7-1,0.6c-0.1,0-0.3-0.1-0.4-0.2
	c-0.2-0.2-0.4-0.4-0.7-0.6L35.8,25.7z M12.2,25.7c-0.2-0.8-0.5-1.5-1-2.1c-0.4-0.5-1.1-0.8-1.6-0.5c-0.5,0.3-0.6,1-0.6,1.6
	c0,1,0,2.1,0,3.1c0,0.6,0,1.2,0.2,1.7c0.2,0.6,0.5,1.1,0.9,1.6c0.3,0.4,0.6,0.8,0.9,1.2c0.3,0.3,0.6,0.7,1,0.6
	c0.1,0,0.3-0.1,0.4-0.2c0.2-0.2,0.4-0.4,0.7-0.6L12.2,25.7z"/>
<path class="st1" d="M38,27c0,2.1-1,3-1,3v-2c-0.6,0-1-0.4-1-1s0.4-1,1-1S38,26.4,38,27z M10,27c0,2.1,1,3,1,3v-2c0.6,0,1-0.4,1-1
	s-0.4-1-1-1S10,26.4,10,27z"/>
<path class="st4" d="M22,44c-3.1,0-10-7.8-10-11V16c0,0,0.3-8,12-8s12,8,12,8v17c0,3.1-7.1,11-10,11H22z"/>
<g>
	<path class="st2" d="M25,25c0-3.9,1.9-4,4.1-4c4.5,0,5.9,1.9,5.9,2v1c-0.7,1.5-1.6,3-3,3.6c-0.5,0.2-1,0.3-1.5,0.3
		C30,28,29.5,28,29,28C25.1,28,25,25,25,25z"/>
	<path class="st2" d="M23,25c0-3.9-1.9-4-4.1-4c-4.5,0-5.9,1.9-5.9,2v1c0.7,1.5,1.6,3,3,3.6c0.5,0.2,1,0.3,1.5,0.3
		C18,28,18.5,28,19,28C22.9,28,23,25,23,25z"/>
	<rect x="12" y="23" class="st2" width="24" height="1"/>
</g>
<path class="st2" d="M24,2c-5.2,0-6,3-6,3s0.1,0-2,0c-4.9,0-6,3.6-6,10v8l3,3v-6c0,0-1.1-10,8-10l3,2l3-2c9,0,8,10,8,10v6l3-3
	c0,0,0-3.5,0-8C38,2.1,29.2,2,24,2z"/>
<rect x="20" y="35" class="st1" width="8" height="2"/>
</svg>
